<svg width="411" height="731" viewBox="0 0 411 731" fill="none" xmlns="http://www.w3.org/2000/svg">
<path d="M74.227 180.501C-52.9294 178.123 -115.557 261.709 -130.977 303.8C-169.19 409.322 -234.044 640.569 -187.759 721.381C-141.475 802.194 -82.9851 753.422 -59.5258 718.935C-45.8121 662.451 13.558 552.224 141.328 563.186C269.097 574.148 371.713 461.313 407.049 403.525C417.128 341.516 472.125 191.343 611.484 86.7179C750.843 -17.9067 681.597 -38.7179 629.554 -36.0454C599.143 -21.0056 525.601 -8.94616 474.717 -81.0266C423.832 -153.107 354.008 -59.2282 325.457 -3.27874C294.695 58.9721 201.383 182.879 74.227 180.501Z" fill="#F4D482"/>
</svg>
